<svg width="46" height="36" viewBox="0 0 46 36" fill="none" xmlns="http://www.w3.org/2000/svg">
<g clip-path="url(#clip0_456_2035)">
<path d="M39.6415 0L16.0366 5.94801C15.5288 5.94801 15.1654 6.43882 15.3141 6.92964L15.2769 11.7088C15.3719 12.0291 15.665 12.2496 15.9995 12.2496H36.0576C36.4086 12.2496 36.7141 12.0042 36.7926 11.6589L40.3764 0.935875C40.4879 0.45338 40.1287 0 39.6415 0Z" fill="#0B3149"/>
<path d="M11.5733 3.10712L39.9429 10.253C40.554 10.253 40.9875 10.8437 40.81 11.4343L40.8554 17.1785C40.7398 17.5653 40.3847 17.8274 39.9883 17.8274H15.8797C15.4586 17.8274 15.0911 17.5321 14.9961 17.1161L10.6856 4.22601C10.5534 3.652 10.987 3.10712 11.5692 3.10712H11.5733Z" fill="#FBBF49"/>
<path d="M22.7832 35.9999C20.3265 35.9999 18.3282 33.9868 18.3282 31.5119C18.3282 29.037 20.3265 27.0239 22.7832 27.0239C25.2399 27.0239 27.2383 29.037 27.2383 31.5119C27.2383 33.9868 25.2399 35.9999 22.7832 35.9999ZM22.7832 29.6526C21.7675 29.6526 20.9376 30.4845 20.9376 31.5119C20.9376 32.5393 21.7634 33.3712 22.7832 33.3712C23.8031 33.3712 24.6288 32.5393 24.6288 31.5119C24.6288 30.4845 23.8031 29.6526 22.7832 29.6526Z" fill="#0B3149"/>
<path d="M35.942 35.9999C33.4853 35.9999 31.4869 33.9868 31.4869 31.5119C31.4869 29.037 33.4853 27.0239 35.942 27.0239C38.3987 27.0239 40.3971 29.037 40.3971 31.5119C40.3971 33.9868 38.3987 35.9999 35.942 35.9999ZM35.942 29.6526C34.9263 29.6526 34.0964 30.4845 34.0964 31.5119C34.0964 32.5393 34.9222 33.3712 35.942 33.3712C36.9619 33.3712 37.7876 32.5393 37.7876 31.5119C37.7876 30.4845 36.9619 29.6526 35.942 29.6526Z" fill="#0B3149"/>
<path d="M15.7806 32.5851C15.2439 32.5851 14.7401 32.2482 14.5502 31.7074L5.44601 5.69841H1.30473C0.582174 5.69841 0 5.10777 0 4.38403C0 3.66028 0.586303 3.06964 1.30473 3.06964H6.36675C6.92003 3.06964 7.41549 3.42319 7.59716 3.94728L17.0069 30.8381C17.2464 31.5244 16.8913 32.2731 16.21 32.5144C16.0655 32.5643 15.921 32.5892 15.7765 32.5892L15.7806 32.5851Z" fill="#0B3149"/>
<path d="M42.1023 29.1743C41.7679 29.1743 41.4334 29.0454 41.1775 28.7875C40.6655 28.2759 40.6655 27.4398 41.1775 26.9282L43.3864 24.7029V23.3012H13.423C12.7005 23.3012 12.1183 22.7106 12.1183 21.9868C12.1183 21.2631 12.7046 20.6724 13.423 20.6724H44.6953C45.4178 20.6724 46 21.2631 46 21.9868V25.2478C46 25.5972 45.8637 25.93 45.616 26.1795L43.0272 28.7875C42.7712 29.0454 42.4368 29.1743 42.1023 29.1743Z" fill="#0B3149"/>
<path d="M44.6953 23.3012C43.9727 23.3012 43.3905 22.7105 43.3905 21.9868V12.158C43.3905 11.4301 43.9768 10.8436 44.6953 10.8436C45.4137 10.8436 46 11.4343 46 12.158V21.9868C46 22.7147 45.4137 23.3012 44.6953 23.3012Z" fill="#0B3149"/>
</g>
<defs>
<clipPath id="clip0_456_2035">
<rect width="46" height="36" fill="white"/>
</clipPath>
</defs>
</svg>
